:FULLY-SPECIFIED
:FORCE-ALL-JOINTS-BE-3DOF
:DEGREES
238
root 5.52563 15.6826 -25.9017 10.2444 22.4625 -6.14314
lfemur -40.3411 34.0726 -5.44597
ltibia 54.4166 -0 0
lfoot -13.0042 4.28616 -0.0675496
ltoes -6.14569 0 0
rfemur -21.1816 -14.2698 4.40336
rtibia 42.8415 -0 0
rfoot -20.1244 -0.733325 -1.76387
rtoes 42.9803 -0 0
lowerback 1.59726 -2.02739 1.7119
upperback -0.636329 -2.63311 2.78352
thorax -1.48563 -1.31164 1.9722
lowerneck -11.6505 -2.40581 -0.153562
upperneck 1.1362 -3.17884 0.210351
head 2.38082 -1.57773 -0.0895097
lclavicle 1.70955e-014 -1.66979e-014 0
lhumerus -52.9756 -37.0144 120.901
lradius 61.3093 -0 0
lwrist 18.5401 0 0
lhand 9.86114 14.0793 -0.191825
lfingers 7.12502 -0 0
lthumb 35.0402 41.0361 -0.000564399
rclavicle 1.70955e-014 -1.66979e-014 0
rhumerus -38.1892 -1.80948 -72.4061
rradius 95.4798 -0 0
rwrist -13.2616 0 0
rhand 38.4468 -19.797 -5.73059
rfingers 7.12502 -0 0
rthumb 55.8609 -38.6005 7.01336
239
root 5.63121 15.7219 -25.8951 10.1227 24.1501 -5.96162
lfemur -40.4652 33.4914 -6.40841
ltibia 53.9476 -0 0
lfoot -13.2059 3.60972 -0.0359299
ltoes -2.41919 0 0
rfemur -20.4141 -12.8341 4.04492
rtibia 43.857 -0 0
rfoot -17.3341 -1.99505 -1.99665
rtoes 39.517 -0 0
lowerback 1.56765 -2.04271 1.54812
upperback -0.666984 -2.6554 2.88952
thorax -1.48626 -1.32112 2.17154
lowerneck -11.5734 -2.76858 -0.291915
upperneck 1.23288 -3.64186 0.192634
head 2.40068 -1.80963 -0.0985361
lclavicle 1.70955e-014 -1.66979e-014 0
lhumerus -52.8739 -36.7208 120.921
lradius 61.3731 -0 0
lwrist 18.5971 0 0
lhand 9.39356 13.8352 -0.198017
lfingers 7.12502 -0 0
lthumb 34.5979 40.9082 0.00122087
rclavicle 1.70955e-014 -1.66979e-014 0
rhumerus -38.6046 -2.21606 -72.0261
rradius 91.7268 -0 0
rwrist -9.03131 0 0
rhand 35.0495 -18.2086 -6.17265
rfingers 7.12502 -0 0
rthumb 52.7064 -39.0554 6.94517
240
root 5.74093 15.7619 -25.8872 9.99909 25.8824 -5.74427
lfemur -40.4554 32.8047 -7.35339
ltibia 53.3543 -0 0
lfoot -13.462 2.86177 -0.000289016
ltoes 1.62048 -0 0
rfemur -19.6608 -11.336 3.67018
rtibia 44.9516 -0 0
rfoot -14.4151 -3.28514 -2.17476
rtoes 35.915 -0 0
lowerback 1.53144 -2.05888 1.37015
upperback -0.698495 -2.67906 2.97845
thorax -1.48407 -1.3315 2.36099
lowerneck -11.4886 -3.1439 -0.424223
upperneck 1.33876 -4.12305 0.17863
head 2.42266 -2.05031 -0.108299
lclavicle 1.70955e-014 -1.66979e-014 0
lhumerus -52.7793 -36.4312 120.929
lradius 61.4261 -0 0
lwrist 18.6729 0 0
lhand 8.964 13.611 -0.19824
lfingers 7.12502 -0 0
lthumb 34.19 40.7781 0.00309237
rclavicle 1.70955e-014 -1.66979e-014 0
rhumerus -38.9603 -2.66085 -71.5039
rradius 87.7296 -0 0
rwrist -4.61122 0 0
rhand 31.2906 -16.6092 -6.43521
rfingers 7.12502 -0 0
rthumb 49.3739 -39.2592 6.64388
241
root 5.85392 15.8022 -25.8781 9.87676 27.6498 -5.49399
lfemur -40.3253 32.0291 -8.27915
ltibia 52.6572 -0 0
lfoot -13.7609 2.05268 0.0363343
ltoes 5.90875 -0 0
rfemur -18.9377 -9.79517 3.29122
rtibia 46.1136 -0 0
rfoot -11.4059 -4.58713 -2.28995
rtoes 32.2165 -0 0
lowerback 1.49119 -2.07638 1.18058
upperback -0.729911 -2.70463 3.05086
thorax -1.47961 -1.343 2.53978
lowerneck -11.3963 -3.52879 -0.551411
upperneck 1.45155 -4.61841 0.168964
head 2.44619 -2.29778 -0.118116
lclavicle 1.70955e-014 -1.66979e-014 0
lhumerus -52.6897 -36.1474 120.923
lradius 61.4688 -0 0
lwrist 18.7645 0 0
lhand 8.5731 13.406 -0.193125
lfingers 7.12502 -0 0
lthumb 33.8176 40.6467 0.00493577
rclavicle 1.70955e-014 -1.66979e-014 0
rhumerus -39.2681 -3.13117 -70.8705
rradius 83.5474 -0 0
rwrist -0.0593236 0 0
rhand 27.2463 -15.0179 -6.51654
rfingers 7.12502 -0 0
rthumb 45.9075 -39.2248 6.15996
242
root 5.96932 15.8424 -25.8678 9.75892 29.4426 -5.21343
lfemur -40.0889 31.1811 -9.18456
ltibia 51.8765 -0 0
lfoot -14.0908 1.1929 0.0711824
ltoes 10.3811 -0 0
rfemur -18.2595 -8.23226 2.91854
rtibia 47.3316 -0 0
rfoot -8.34515 -5.88358 -2.3372
rtoes 28.4634 -0 0
lowerback 1.44945 -2.09565 0.982026
upperback -0.760283 -2.73262 3.10726
thorax -1.47344 -1.35587 2.70717
lowerneck -11.2966 -3.92033 -0.674394
upperneck 1.56898 -5.1239 0.164309
head 2.47066 -2.55004 -0.127299
lclavicle 1.70955e-014 -1.66979e-014 0
lhumerus -52.6029 -35.8712 120.901
lradius 61.5019 -0 0
lwrist 18.8689 0 0
lhand 8.22154 13.2193 -0.183344
lfingers 7.12502 -0 0
lthumb 33.4813 40.515 0.00665589
rclavicle 1.70955e-014 -1.66979e-014 0
rhumerus -39.5393 -3.61476 -70.1571
rradius 79.2393 -0 0
rwrist 4.56636 0 0
rhand 22.9927 -13.4556 -6.42094
rfingers 7.12502 -0 0
rthumb 42.3488 -38.9696 5.5431
